<mxfile host="app.diagrams.net" agent="Mozilla/5.0 (Windows NT 10.0; Win64; x64) AppleWebKit/537.36 (KHTML, like Gecko) Chrome/131.0.0.0 Safari/537.36" version="26.0.5">
  <diagram id="gwZuCnDtprSXznQZ7Ef3" name="Page-1">
    <mxGraphModel dx="3560" dy="1851" grid="1" gridSize="10" guides="1" tooltips="1" connect="1" arrows="1" fold="1" page="1" pageScale="1" pageWidth="850" pageHeight="1100" math="0" shadow="0">
      <root>
        <mxCell id="0" />
        <mxCell id="1" parent="0" />
        <mxCell id="VSgS5F7AN9F9pFCRdqw3-1" value="&lt;font style=&quot;font-size: 20px;&quot;&gt;Customer&amp;nbsp;&lt;/font&gt;" style="rounded=0;whiteSpace=wrap;html=1;" vertex="1" parent="1">
          <mxGeometry x="20" y="60" width="270" height="70" as="geometry" />
        </mxCell>
        <mxCell id="VSgS5F7AN9F9pFCRdqw3-2" value="Show / Search&lt;div&gt;item&lt;/div&gt;" style="ellipse;whiteSpace=wrap;html=1;" vertex="1" parent="1">
          <mxGeometry x="410" y="40" width="125" height="125" as="geometry" />
        </mxCell>
        <mxCell id="VSgS5F7AN9F9pFCRdqw3-4" value="DISH_TABLE" style="html=1;dashed=0;whiteSpace=wrap;shape=partialRectangle;right=0;" vertex="1" parent="1">
          <mxGeometry x="730" y="70" width="150" height="60" as="geometry" />
        </mxCell>
        <mxCell id="VSgS5F7AN9F9pFCRdqw3-5" value="" style="endArrow=classic;html=1;rounded=0;fontSize=12;startSize=8;endSize=8;curved=1;exitX=1;exitY=0.286;exitDx=0;exitDy=0;exitPerimeter=0;" edge="1" parent="1">
          <mxGeometry width="50" height="50" relative="1" as="geometry">
            <mxPoint x="292" y="80.01999999999998" as="sourcePoint" />
            <mxPoint x="412" y="80" as="targetPoint" />
          </mxGeometry>
        </mxCell>
        <mxCell id="VSgS5F7AN9F9pFCRdqw3-6" value="" style="endArrow=classic;html=1;rounded=0;fontSize=12;startSize=8;endSize=8;curved=1;exitX=1;exitY=0.286;exitDx=0;exitDy=0;exitPerimeter=0;" edge="1" parent="1">
          <mxGeometry width="50" height="50" relative="1" as="geometry">
            <mxPoint x="537" y="81" as="sourcePoint" />
            <mxPoint x="720" y="80" as="targetPoint" />
          </mxGeometry>
        </mxCell>
        <mxCell id="VSgS5F7AN9F9pFCRdqw3-8" value="" style="endArrow=classic;html=1;rounded=0;fontSize=12;startSize=8;endSize=8;curved=1;" edge="1" parent="1">
          <mxGeometry width="50" height="50" relative="1" as="geometry">
            <mxPoint x="410" y="115" as="sourcePoint" />
            <mxPoint x="290" y="115" as="targetPoint" />
          </mxGeometry>
        </mxCell>
        <mxCell id="VSgS5F7AN9F9pFCRdqw3-9" value="" style="endArrow=classic;html=1;rounded=0;fontSize=12;startSize=8;endSize=8;curved=1;" edge="1" parent="1">
          <mxGeometry width="50" height="50" relative="1" as="geometry">
            <mxPoint x="720" y="116" as="sourcePoint" />
            <mxPoint x="535" y="116" as="targetPoint" />
          </mxGeometry>
        </mxCell>
        <mxCell id="VSgS5F7AN9F9pFCRdqw3-10" value="&lt;font style=&quot;font-size: 11px;&quot;&gt;show item&lt;/font&gt;" style="text;strokeColor=none;align=center;fillColor=none;html=1;verticalAlign=middle;whiteSpace=wrap;rounded=0;fontSize=16;" vertex="1" parent="1">
          <mxGeometry x="324" y="60" width="60" height="17" as="geometry" />
        </mxCell>
        <mxCell id="VSgS5F7AN9F9pFCRdqw3-11" value="&lt;font&gt;check for show item&lt;/font&gt;" style="text;strokeColor=none;align=center;fillColor=none;html=1;verticalAlign=middle;whiteSpace=wrap;rounded=0;fontSize=11;" vertex="1" parent="1">
          <mxGeometry x="541" y="60" width="100" height="17" as="geometry" />
        </mxCell>
        <mxCell id="VSgS5F7AN9F9pFCRdqw3-12" value="&lt;font&gt;Response&amp;nbsp;&lt;/font&gt;" style="text;strokeColor=none;align=center;fillColor=none;html=1;verticalAlign=middle;whiteSpace=wrap;rounded=0;fontSize=11;" vertex="1" parent="1">
          <mxGeometry x="554.5" y="95.5" width="79" height="16" as="geometry" />
        </mxCell>
        <mxCell id="VSgS5F7AN9F9pFCRdqw3-14" value="&lt;font&gt;Response accept / reject&lt;/font&gt;" style="text;strokeColor=none;align=center;fillColor=none;html=1;verticalAlign=middle;whiteSpace=wrap;rounded=0;fontSize=11;spacing=3;" vertex="1" parent="1">
          <mxGeometry x="308" y="98.5" width="92" height="10" as="geometry" />
        </mxCell>
        <mxCell id="VSgS5F7AN9F9pFCRdqw3-15" value="register&amp;nbsp;" style="ellipse;whiteSpace=wrap;html=1;" vertex="1" parent="1">
          <mxGeometry x="410" y="220" width="125" height="125" as="geometry" />
        </mxCell>
        <mxCell id="VSgS5F7AN9F9pFCRdqw3-16" value="" style="endArrow=none;html=1;rounded=0;fontSize=12;startSize=8;endSize=8;curved=1;entryX=0.908;entryY=0.21;entryDx=0;entryDy=0;entryPerimeter=0;" edge="1" parent="1" target="VSgS5F7AN9F9pFCRdqw3-15">
          <mxGeometry width="50" height="50" relative="1" as="geometry">
            <mxPoint x="422" y="246" as="sourcePoint" />
            <mxPoint x="517.75" y="245.5" as="targetPoint" />
          </mxGeometry>
        </mxCell>
        <mxCell id="VSgS5F7AN9F9pFCRdqw3-17" value="1.0" style="text;strokeColor=none;align=center;fillColor=none;html=1;verticalAlign=middle;whiteSpace=wrap;rounded=0;fontSize=16;" vertex="1" parent="1">
          <mxGeometry x="440.5" y="218" width="60" height="30" as="geometry" />
        </mxCell>
        <mxCell id="VSgS5F7AN9F9pFCRdqw3-18" value="" style="endArrow=classic;html=1;rounded=0;fontSize=12;startSize=8;endSize=8;curved=1;" edge="1" parent="1">
          <mxGeometry width="50" height="50" relative="1" as="geometry">
            <mxPoint x="280" y="260" as="sourcePoint" />
            <mxPoint x="404" y="260" as="targetPoint" />
          </mxGeometry>
        </mxCell>
        <mxCell id="VSgS5F7AN9F9pFCRdqw3-19" value="" style="endArrow=none;html=1;rounded=0;fontSize=12;startSize=8;endSize=8;curved=1;entryX=0.959;entryY=1.039;entryDx=0;entryDy=0;entryPerimeter=0;" edge="1" parent="1" target="VSgS5F7AN9F9pFCRdqw3-1">
          <mxGeometry width="50" height="50" relative="1" as="geometry">
            <mxPoint x="280" y="260" as="sourcePoint" />
            <mxPoint x="280" y="140" as="targetPoint" />
          </mxGeometry>
        </mxCell>
        <mxCell id="VSgS5F7AN9F9pFCRdqw3-20" value="USER_TABLE" style="html=1;dashed=0;whiteSpace=wrap;shape=partialRectangle;right=0;" vertex="1" parent="1">
          <mxGeometry x="730" y="285" width="150" height="95" as="geometry" />
        </mxCell>
        <mxCell id="VSgS5F7AN9F9pFCRdqw3-21" value="" style="endArrow=none;html=1;rounded=0;fontSize=12;startSize=8;endSize=8;curved=1;" edge="1" parent="1">
          <mxGeometry width="50" height="50" relative="1" as="geometry">
            <mxPoint x="533.9999999999999" y="260" as="sourcePoint" />
            <mxPoint x="590.67" y="260" as="targetPoint" />
          </mxGeometry>
        </mxCell>
        <mxCell id="VSgS5F7AN9F9pFCRdqw3-22" value="" style="endArrow=classic;html=1;rounded=0;fontSize=12;startSize=8;endSize=8;curved=1;" edge="1" parent="1">
          <mxGeometry width="50" height="50" relative="1" as="geometry">
            <mxPoint x="590" y="310" as="sourcePoint" />
            <mxPoint x="720" y="310" as="targetPoint" />
          </mxGeometry>
        </mxCell>
        <mxCell id="VSgS5F7AN9F9pFCRdqw3-25" value="" style="endArrow=none;html=1;rounded=0;fontSize=12;startSize=8;endSize=8;curved=1;" edge="1" parent="1">
          <mxGeometry width="50" height="50" relative="1" as="geometry">
            <mxPoint x="590" y="310" as="sourcePoint" />
            <mxPoint x="590" y="260" as="targetPoint" />
          </mxGeometry>
        </mxCell>
        <mxCell id="VSgS5F7AN9F9pFCRdqw3-26" value="" style="endArrow=none;html=1;rounded=0;fontSize=12;startSize=8;endSize=8;curved=1;" edge="1" parent="1">
          <mxGeometry width="50" height="50" relative="1" as="geometry">
            <mxPoint x="570" y="331" as="sourcePoint" />
            <mxPoint x="720" y="330" as="targetPoint" />
          </mxGeometry>
        </mxCell>
        <mxCell id="VSgS5F7AN9F9pFCRdqw3-27" value="" style="endArrow=none;html=1;rounded=0;fontSize=12;startSize=8;endSize=8;curved=1;" edge="1" parent="1">
          <mxGeometry width="50" height="50" relative="1" as="geometry">
            <mxPoint x="570" y="332" as="sourcePoint" />
            <mxPoint x="570" y="290" as="targetPoint" />
          </mxGeometry>
        </mxCell>
        <mxCell id="VSgS5F7AN9F9pFCRdqw3-28" value="" style="endArrow=classic;html=1;rounded=0;fontSize=12;startSize=8;endSize=8;curved=1;" edge="1" parent="1">
          <mxGeometry width="50" height="50" relative="1" as="geometry">
            <mxPoint x="570" y="290" as="sourcePoint" />
            <mxPoint x="537" y="290" as="targetPoint" />
          </mxGeometry>
        </mxCell>
        <mxCell id="VSgS5F7AN9F9pFCRdqw3-29" value="" style="endArrow=none;html=1;rounded=0;fontSize=12;startSize=8;endSize=8;curved=1;" edge="1" parent="1">
          <mxGeometry width="50" height="50" relative="1" as="geometry">
            <mxPoint x="260" y="290" as="sourcePoint" />
            <mxPoint x="400" y="290" as="targetPoint" />
          </mxGeometry>
        </mxCell>
        <mxCell id="VSgS5F7AN9F9pFCRdqw3-30" value="" style="endArrow=classic;html=1;rounded=0;fontSize=12;startSize=8;endSize=8;curved=1;entryX=0.884;entryY=1.039;entryDx=0;entryDy=0;entryPerimeter=0;" edge="1" parent="1" target="VSgS5F7AN9F9pFCRdqw3-1">
          <mxGeometry width="50" height="50" relative="1" as="geometry">
            <mxPoint x="260" y="290" as="sourcePoint" />
            <mxPoint x="260" y="140" as="targetPoint" />
          </mxGeometry>
        </mxCell>
        <mxCell id="VSgS5F7AN9F9pFCRdqw3-34" value="Login" style="ellipse;whiteSpace=wrap;html=1;" vertex="1" parent="1">
          <mxGeometry x="410" y="402" width="125" height="125" as="geometry" />
        </mxCell>
        <mxCell id="VSgS5F7AN9F9pFCRdqw3-35" value="1.1" style="text;strokeColor=none;align=center;fillColor=none;html=1;verticalAlign=middle;whiteSpace=wrap;rounded=0;fontSize=16;" vertex="1" parent="1">
          <mxGeometry x="440.5" y="400" width="60" height="30" as="geometry" />
        </mxCell>
        <mxCell id="VSgS5F7AN9F9pFCRdqw3-36" value="" style="endArrow=none;html=1;rounded=0;fontSize=12;startSize=8;endSize=8;curved=1;entryX=0.908;entryY=0.21;entryDx=0;entryDy=0;entryPerimeter=0;" edge="1" target="VSgS5F7AN9F9pFCRdqw3-34" parent="1">
          <mxGeometry width="50" height="50" relative="1" as="geometry">
            <mxPoint x="422" y="428" as="sourcePoint" />
            <mxPoint x="517.75" y="427.5" as="targetPoint" />
          </mxGeometry>
        </mxCell>
        <mxCell id="VSgS5F7AN9F9pFCRdqw3-37" value="" style="endArrow=none;html=1;rounded=0;fontSize=12;startSize=8;endSize=8;curved=1;entryX=0.779;entryY=1.003;entryDx=0;entryDy=0;entryPerimeter=0;" edge="1" parent="1" target="VSgS5F7AN9F9pFCRdqw3-1">
          <mxGeometry width="50" height="50" relative="1" as="geometry">
            <mxPoint x="230" y="432" as="sourcePoint" />
            <mxPoint x="230" y="140" as="targetPoint" />
          </mxGeometry>
        </mxCell>
        <mxCell id="VSgS5F7AN9F9pFCRdqw3-38" value="" style="endArrow=classic;html=1;rounded=0;fontSize=12;startSize=8;endSize=8;curved=1;" edge="1" parent="1">
          <mxGeometry width="50" height="50" relative="1" as="geometry">
            <mxPoint x="230" y="432" as="sourcePoint" />
            <mxPoint x="415" y="432" as="targetPoint" />
          </mxGeometry>
        </mxCell>
        <mxCell id="VSgS5F7AN9F9pFCRdqw3-41" value="" style="endArrow=none;html=1;rounded=0;fontSize=12;startSize=8;endSize=8;curved=1;" edge="1" parent="1">
          <mxGeometry width="50" height="50" relative="1" as="geometry">
            <mxPoint x="528" y="431" as="sourcePoint" />
            <mxPoint x="607" y="431" as="targetPoint" />
          </mxGeometry>
        </mxCell>
        <mxCell id="VSgS5F7AN9F9pFCRdqw3-43" value="" style="endArrow=none;html=1;rounded=0;fontSize=12;startSize=8;endSize=8;curved=1;" edge="1" parent="1">
          <mxGeometry width="50" height="50" relative="1" as="geometry">
            <mxPoint x="607" y="431" as="sourcePoint" />
            <mxPoint x="607" y="350" as="targetPoint" />
          </mxGeometry>
        </mxCell>
        <mxCell id="VSgS5F7AN9F9pFCRdqw3-44" value="" style="endArrow=classic;html=1;rounded=0;fontSize=12;startSize=8;endSize=8;curved=1;entryX=-0.01;entryY=0.684;entryDx=0;entryDy=0;entryPerimeter=0;" edge="1" parent="1" target="VSgS5F7AN9F9pFCRdqw3-20">
          <mxGeometry width="50" height="50" relative="1" as="geometry">
            <mxPoint x="607" y="350" as="sourcePoint" />
            <mxPoint x="656" y="350" as="targetPoint" />
          </mxGeometry>
        </mxCell>
        <mxCell id="VSgS5F7AN9F9pFCRdqw3-45" value="" style="endArrow=none;html=1;rounded=0;fontSize=12;startSize=8;endSize=8;curved=1;entryX=0;entryY=0.916;entryDx=0;entryDy=0;entryPerimeter=0;" edge="1" parent="1" target="VSgS5F7AN9F9pFCRdqw3-20">
          <mxGeometry width="50" height="50" relative="1" as="geometry">
            <mxPoint x="640" y="372" as="sourcePoint" />
            <mxPoint x="720" y="372" as="targetPoint" />
          </mxGeometry>
        </mxCell>
        <mxCell id="VSgS5F7AN9F9pFCRdqw3-46" value="" style="endArrow=classic;html=1;rounded=0;fontSize=12;startSize=8;endSize=8;curved=1;" edge="1" parent="1">
          <mxGeometry width="50" height="50" relative="1" as="geometry">
            <mxPoint x="640" y="472" as="sourcePoint" />
            <mxPoint x="537" y="472" as="targetPoint" />
          </mxGeometry>
        </mxCell>
        <mxCell id="VSgS5F7AN9F9pFCRdqw3-47" value="" style="endArrow=none;html=1;rounded=0;fontSize=12;startSize=8;endSize=8;curved=1;" edge="1" parent="1">
          <mxGeometry width="50" height="50" relative="1" as="geometry">
            <mxPoint x="640" y="472" as="sourcePoint" />
            <mxPoint x="640" y="372" as="targetPoint" />
          </mxGeometry>
        </mxCell>
        <mxCell id="VSgS5F7AN9F9pFCRdqw3-49" value="" style="endArrow=none;html=1;rounded=0;fontSize=12;startSize=8;endSize=8;curved=1;" edge="1" parent="1">
          <mxGeometry width="50" height="50" relative="1" as="geometry">
            <mxPoint x="200" y="477" as="sourcePoint" />
            <mxPoint x="406" y="477" as="targetPoint" />
          </mxGeometry>
        </mxCell>
        <mxCell id="VSgS5F7AN9F9pFCRdqw3-50" value="" style="endArrow=classic;html=1;rounded=0;fontSize=12;startSize=8;endSize=8;curved=1;entryX=0.667;entryY=1;entryDx=0;entryDy=0;entryPerimeter=0;" edge="1" parent="1" target="VSgS5F7AN9F9pFCRdqw3-1">
          <mxGeometry width="50" height="50" relative="1" as="geometry">
            <mxPoint x="200" y="478" as="sourcePoint" />
            <mxPoint x="200" y="140" as="targetPoint" />
          </mxGeometry>
        </mxCell>
        <mxCell id="VSgS5F7AN9F9pFCRdqw3-53" value="place order" style="ellipse;whiteSpace=wrap;html=1;" vertex="1" parent="1">
          <mxGeometry x="411" y="592" width="125" height="125" as="geometry" />
        </mxCell>
        <mxCell id="VSgS5F7AN9F9pFCRdqw3-54" value="" style="endArrow=none;html=1;rounded=0;fontSize=12;startSize=8;endSize=8;curved=1;entryX=0.908;entryY=0.21;entryDx=0;entryDy=0;entryPerimeter=0;" edge="1" target="VSgS5F7AN9F9pFCRdqw3-53" parent="1">
          <mxGeometry width="50" height="50" relative="1" as="geometry">
            <mxPoint x="423" y="618" as="sourcePoint" />
            <mxPoint x="518.75" y="617.5" as="targetPoint" />
          </mxGeometry>
        </mxCell>
        <mxCell id="VSgS5F7AN9F9pFCRdqw3-55" value="1.2" style="text;strokeColor=none;align=center;fillColor=none;html=1;verticalAlign=middle;whiteSpace=wrap;rounded=0;fontSize=16;" vertex="1" parent="1">
          <mxGeometry x="441.5" y="590" width="60" height="30" as="geometry" />
        </mxCell>
        <mxCell id="VSgS5F7AN9F9pFCRdqw3-56" value="" style="endArrow=classic;html=1;rounded=0;fontSize=12;startSize=8;endSize=8;curved=1;exitX=0.5;exitY=1;exitDx=0;exitDy=0;entryX=0.5;entryY=0;entryDx=0;entryDy=0;" edge="1" parent="1" source="VSgS5F7AN9F9pFCRdqw3-2" target="VSgS5F7AN9F9pFCRdqw3-15">
          <mxGeometry width="50" height="50" relative="1" as="geometry">
            <mxPoint x="480" y="180" as="sourcePoint" />
            <mxPoint x="620" y="150" as="targetPoint" />
          </mxGeometry>
        </mxCell>
        <mxCell id="VSgS5F7AN9F9pFCRdqw3-57" value="" style="endArrow=classic;html=1;rounded=0;fontSize=12;startSize=8;endSize=8;curved=1;entryX=0.5;entryY=0;entryDx=0;entryDy=0;" edge="1" parent="1" target="VSgS5F7AN9F9pFCRdqw3-35">
          <mxGeometry width="50" height="50" relative="1" as="geometry">
            <mxPoint x="471" y="345" as="sourcePoint" />
            <mxPoint x="471" y="395" as="targetPoint" />
          </mxGeometry>
        </mxCell>
        <mxCell id="VSgS5F7AN9F9pFCRdqw3-58" value="" style="endArrow=classic;html=1;rounded=0;fontSize=12;startSize=8;endSize=8;curved=1;exitX=0.5;exitY=1;exitDx=0;exitDy=0;" edge="1" parent="1" source="VSgS5F7AN9F9pFCRdqw3-34">
          <mxGeometry width="50" height="50" relative="1" as="geometry">
            <mxPoint x="460" y="580" as="sourcePoint" />
            <mxPoint x="473" y="590" as="targetPoint" />
          </mxGeometry>
        </mxCell>
        <mxCell id="VSgS5F7AN9F9pFCRdqw3-59" value="ORDER_TABLE" style="html=1;dashed=0;whiteSpace=wrap;shape=partialRectangle;right=0;" vertex="1" parent="1">
          <mxGeometry x="730" y="680" width="150" height="95" as="geometry" />
        </mxCell>
        <mxCell id="VSgS5F7AN9F9pFCRdqw3-60" value="" style="endArrow=none;html=1;rounded=0;fontSize=12;startSize=8;endSize=8;curved=1;entryX=0.554;entryY=1.046;entryDx=0;entryDy=0;entryPerimeter=0;" edge="1" parent="1" target="VSgS5F7AN9F9pFCRdqw3-1">
          <mxGeometry width="50" height="50" relative="1" as="geometry">
            <mxPoint x="170" y="630" as="sourcePoint" />
            <mxPoint x="170" y="140" as="targetPoint" />
          </mxGeometry>
        </mxCell>
        <mxCell id="VSgS5F7AN9F9pFCRdqw3-61" value="" style="endArrow=classic;html=1;rounded=0;fontSize=12;startSize=8;endSize=8;curved=1;" edge="1" parent="1">
          <mxGeometry width="50" height="50" relative="1" as="geometry">
            <mxPoint x="170" y="630" as="sourcePoint" />
            <mxPoint x="410" y="630" as="targetPoint" />
          </mxGeometry>
        </mxCell>
        <mxCell id="VSgS5F7AN9F9pFCRdqw3-63" value="" style="endArrow=none;html=1;rounded=0;fontSize=12;startSize=8;endSize=8;curved=1;exitX=0.959;exitY=0.247;exitDx=0;exitDy=0;exitPerimeter=0;" edge="1" parent="1">
          <mxGeometry width="50" height="50" relative="1" as="geometry">
            <mxPoint x="535.995" y="628.8749999999999" as="sourcePoint" />
            <mxPoint x="620" y="629" as="targetPoint" />
          </mxGeometry>
        </mxCell>
        <mxCell id="VSgS5F7AN9F9pFCRdqw3-64" value="" style="endArrow=none;html=1;rounded=0;fontSize=12;startSize=8;endSize=8;curved=1;" edge="1" parent="1">
          <mxGeometry width="50" height="50" relative="1" as="geometry">
            <mxPoint x="620" y="690" as="sourcePoint" />
            <mxPoint x="620" y="630" as="targetPoint" />
          </mxGeometry>
        </mxCell>
        <mxCell id="VSgS5F7AN9F9pFCRdqw3-65" value="" style="endArrow=classic;html=1;rounded=0;fontSize=12;startSize=8;endSize=8;curved=1;entryX=0;entryY=0.105;entryDx=0;entryDy=0;entryPerimeter=0;" edge="1" parent="1" target="VSgS5F7AN9F9pFCRdqw3-59">
          <mxGeometry width="50" height="50" relative="1" as="geometry">
            <mxPoint x="620" y="690" as="sourcePoint" />
            <mxPoint x="670" y="640" as="targetPoint" />
          </mxGeometry>
        </mxCell>
        <mxCell id="VSgS5F7AN9F9pFCRdqw3-66" value="" style="endArrow=none;html=1;rounded=0;fontSize=12;startSize=8;endSize=8;curved=1;" edge="1" parent="1">
          <mxGeometry width="50" height="50" relative="1" as="geometry">
            <mxPoint x="590" y="716" as="sourcePoint" />
            <mxPoint x="730" y="716" as="targetPoint" />
          </mxGeometry>
        </mxCell>
        <mxCell id="VSgS5F7AN9F9pFCRdqw3-67" value="" style="endArrow=none;html=1;rounded=0;fontSize=12;startSize=8;endSize=8;curved=1;" edge="1" parent="1">
          <mxGeometry width="50" height="50" relative="1" as="geometry">
            <mxPoint x="591" y="717" as="sourcePoint" />
            <mxPoint x="591" y="660" as="targetPoint" />
          </mxGeometry>
        </mxCell>
        <mxCell id="VSgS5F7AN9F9pFCRdqw3-68" value="" style="endArrow=classic;html=1;rounded=0;fontSize=12;startSize=8;endSize=8;curved=1;entryX=1.032;entryY=0.544;entryDx=0;entryDy=0;entryPerimeter=0;" edge="1" parent="1">
          <mxGeometry width="50" height="50" relative="1" as="geometry">
            <mxPoint x="591" y="660" as="sourcePoint" />
            <mxPoint x="538" y="660" as="targetPoint" />
          </mxGeometry>
        </mxCell>
        <mxCell id="VSgS5F7AN9F9pFCRdqw3-69" value="" style="endArrow=none;html=1;rounded=0;fontSize=12;startSize=8;endSize=8;curved=1;" edge="1" parent="1">
          <mxGeometry width="50" height="50" relative="1" as="geometry">
            <mxPoint x="140" y="660" as="sourcePoint" />
            <mxPoint x="409" y="660" as="targetPoint" />
          </mxGeometry>
        </mxCell>
        <mxCell id="VSgS5F7AN9F9pFCRdqw3-70" value="" style="endArrow=classic;html=1;rounded=0;fontSize=12;startSize=8;endSize=8;curved=1;entryX=0.449;entryY=1.039;entryDx=0;entryDy=0;entryPerimeter=0;" edge="1" parent="1" target="VSgS5F7AN9F9pFCRdqw3-1">
          <mxGeometry width="50" height="50" relative="1" as="geometry">
            <mxPoint x="140" y="660" as="sourcePoint" />
            <mxPoint x="140" y="140" as="targetPoint" />
          </mxGeometry>
        </mxCell>
        <mxCell id="VSgS5F7AN9F9pFCRdqw3-71" value="Add to cart" style="ellipse;whiteSpace=wrap;html=1;" vertex="1" parent="1">
          <mxGeometry x="411" y="782" width="125" height="125" as="geometry" />
        </mxCell>
        <mxCell id="VSgS5F7AN9F9pFCRdqw3-72" value="1.3" style="text;strokeColor=none;align=center;fillColor=none;html=1;verticalAlign=middle;whiteSpace=wrap;rounded=0;fontSize=16;" vertex="1" parent="1">
          <mxGeometry x="441.5" y="780" width="60" height="30" as="geometry" />
        </mxCell>
        <mxCell id="VSgS5F7AN9F9pFCRdqw3-73" value="" style="endArrow=none;html=1;rounded=0;fontSize=12;startSize=8;endSize=8;curved=1;entryX=0.908;entryY=0.21;entryDx=0;entryDy=0;entryPerimeter=0;" edge="1" target="VSgS5F7AN9F9pFCRdqw3-71" parent="1">
          <mxGeometry width="50" height="50" relative="1" as="geometry">
            <mxPoint x="423" y="808" as="sourcePoint" />
            <mxPoint x="518.75" y="807.5" as="targetPoint" />
          </mxGeometry>
        </mxCell>
        <mxCell id="VSgS5F7AN9F9pFCRdqw3-74" value="" style="endArrow=classic;html=1;rounded=0;fontSize=12;startSize=8;endSize=8;curved=1;exitX=0.5;exitY=1;exitDx=0;exitDy=0;" edge="1" parent="1">
          <mxGeometry width="50" height="50" relative="1" as="geometry">
            <mxPoint x="473.13" y="717" as="sourcePoint" />
            <mxPoint x="473.13" y="780" as="targetPoint" />
          </mxGeometry>
        </mxCell>
        <mxCell id="VSgS5F7AN9F9pFCRdqw3-75" value="" style="endArrow=none;html=1;rounded=0;fontSize=12;startSize=8;endSize=8;curved=1;entryX=0.333;entryY=1;entryDx=0;entryDy=0;entryPerimeter=0;" edge="1" parent="1" target="VSgS5F7AN9F9pFCRdqw3-1">
          <mxGeometry width="50" height="50" relative="1" as="geometry">
            <mxPoint x="110" y="810" as="sourcePoint" />
            <mxPoint x="109" y="140" as="targetPoint" />
          </mxGeometry>
        </mxCell>
        <mxCell id="VSgS5F7AN9F9pFCRdqw3-77" value="" style="endArrow=classic;html=1;rounded=0;fontSize=12;startSize=8;endSize=8;curved=1;entryX=0.072;entryY=0.224;entryDx=0;entryDy=0;entryPerimeter=0;" edge="1" parent="1" target="VSgS5F7AN9F9pFCRdqw3-71">
          <mxGeometry width="50" height="50" relative="1" as="geometry">
            <mxPoint x="110" y="810" as="sourcePoint" />
            <mxPoint x="160" y="760" as="targetPoint" />
          </mxGeometry>
        </mxCell>
        <mxCell id="VSgS5F7AN9F9pFCRdqw3-78" value="" style="endArrow=none;html=1;rounded=0;fontSize=12;startSize=8;endSize=8;curved=1;" edge="1" parent="1">
          <mxGeometry width="50" height="50" relative="1" as="geometry">
            <mxPoint x="529" y="810" as="sourcePoint" />
            <mxPoint x="640" y="810" as="targetPoint" />
          </mxGeometry>
        </mxCell>
        <mxCell id="VSgS5F7AN9F9pFCRdqw3-79" value="" style="endArrow=none;html=1;rounded=0;fontSize=12;startSize=8;endSize=8;curved=1;" edge="1" parent="1">
          <mxGeometry width="50" height="50" relative="1" as="geometry">
            <mxPoint x="640" y="810" as="sourcePoint" />
            <mxPoint x="639.5" y="740" as="targetPoint" />
          </mxGeometry>
        </mxCell>
        <mxCell id="VSgS5F7AN9F9pFCRdqw3-80" value="" style="endArrow=classic;html=1;rounded=0;fontSize=12;startSize=8;endSize=8;curved=1;entryX=-0.014;entryY=0.627;entryDx=0;entryDy=0;entryPerimeter=0;" edge="1" parent="1">
          <mxGeometry width="50" height="50" relative="1" as="geometry">
            <mxPoint x="639" y="740" as="sourcePoint" />
            <mxPoint x="726.9" y="739.5649999999999" as="targetPoint" />
          </mxGeometry>
        </mxCell>
        <mxCell id="VSgS5F7AN9F9pFCRdqw3-81" value="" style="endArrow=none;html=1;rounded=0;fontSize=12;startSize=8;endSize=8;curved=1;" edge="1" parent="1">
          <mxGeometry width="50" height="50" relative="1" as="geometry">
            <mxPoint x="680" y="760" as="sourcePoint" />
            <mxPoint x="730" y="760" as="targetPoint" />
          </mxGeometry>
        </mxCell>
        <mxCell id="VSgS5F7AN9F9pFCRdqw3-82" value="" style="endArrow=none;html=1;rounded=0;fontSize=12;startSize=8;endSize=8;curved=1;" edge="1" parent="1">
          <mxGeometry width="50" height="50" relative="1" as="geometry">
            <mxPoint x="680" y="850" as="sourcePoint" />
            <mxPoint x="680" y="760" as="targetPoint" />
          </mxGeometry>
        </mxCell>
        <mxCell id="VSgS5F7AN9F9pFCRdqw3-83" value="" style="endArrow=classic;html=1;rounded=0;fontSize=12;startSize=8;endSize=8;curved=1;" edge="1" parent="1">
          <mxGeometry width="50" height="50" relative="1" as="geometry">
            <mxPoint x="680" y="850" as="sourcePoint" />
            <mxPoint x="540" y="850" as="targetPoint" />
          </mxGeometry>
        </mxCell>
        <mxCell id="VSgS5F7AN9F9pFCRdqw3-84" value="" style="endArrow=none;html=1;rounded=0;fontSize=12;startSize=8;endSize=8;curved=1;" edge="1" parent="1">
          <mxGeometry width="50" height="50" relative="1" as="geometry">
            <mxPoint x="73" y="854" as="sourcePoint" />
            <mxPoint x="407" y="854" as="targetPoint" />
          </mxGeometry>
        </mxCell>
        <mxCell id="VSgS5F7AN9F9pFCRdqw3-85" value="" style="endArrow=classic;html=1;rounded=0;fontSize=12;startSize=8;endSize=8;curved=1;entryX=0.201;entryY=1.024;entryDx=0;entryDy=0;entryPerimeter=0;" edge="1" parent="1" target="VSgS5F7AN9F9pFCRdqw3-1">
          <mxGeometry width="50" height="50" relative="1" as="geometry">
            <mxPoint x="73" y="854" as="sourcePoint" />
            <mxPoint x="73" y="140" as="targetPoint" />
          </mxGeometry>
        </mxCell>
        <mxCell id="VSgS5F7AN9F9pFCRdqw3-89" value="" style="endArrow=classic;html=1;rounded=0;fontSize=12;startSize=8;endSize=8;curved=1;exitX=0.5;exitY=1;exitDx=0;exitDy=0;entryX=0.5;entryY=0;entryDx=0;entryDy=0;" edge="1" parent="1" source="VSgS5F7AN9F9pFCRdqw3-71">
          <mxGeometry width="50" height="50" relative="1" as="geometry">
            <mxPoint x="480" y="910" as="sourcePoint" />
            <mxPoint x="473.4999999999999" y="990" as="targetPoint" />
          </mxGeometry>
        </mxCell>
        <mxCell id="VSgS5F7AN9F9pFCRdqw3-90" value="Payment&amp;nbsp;" style="ellipse;whiteSpace=wrap;html=1;" vertex="1" parent="1">
          <mxGeometry x="411" y="992" width="125" height="125" as="geometry" />
        </mxCell>
        <mxCell id="VSgS5F7AN9F9pFCRdqw3-91" value="" style="endArrow=none;html=1;rounded=0;fontSize=12;startSize=8;endSize=8;curved=1;entryX=0.908;entryY=0.21;entryDx=0;entryDy=0;entryPerimeter=0;" edge="1" target="VSgS5F7AN9F9pFCRdqw3-90" parent="1">
          <mxGeometry width="50" height="50" relative="1" as="geometry">
            <mxPoint x="423" y="1018" as="sourcePoint" />
            <mxPoint x="518.75" y="1017.5" as="targetPoint" />
          </mxGeometry>
        </mxCell>
        <mxCell id="VSgS5F7AN9F9pFCRdqw3-92" value="1.4" style="text;strokeColor=none;align=center;fillColor=none;html=1;verticalAlign=middle;whiteSpace=wrap;rounded=0;fontSize=16;" vertex="1" parent="1">
          <mxGeometry x="441.5" y="990" width="60" height="30" as="geometry" />
        </mxCell>
        <mxCell id="VSgS5F7AN9F9pFCRdqw3-93" value="ORDER_TABLE" style="html=1;dashed=0;whiteSpace=wrap;shape=partialRectangle;right=0;" vertex="1" parent="1">
          <mxGeometry x="730" y="1007" width="150" height="95" as="geometry" />
        </mxCell>
        <mxCell id="VSgS5F7AN9F9pFCRdqw3-97" value="" style="endArrow=none;html=1;rounded=0;fontSize=12;startSize=8;endSize=8;curved=1;entryX=0.116;entryY=1.003;entryDx=0;entryDy=0;entryPerimeter=0;" edge="1" parent="1" target="VSgS5F7AN9F9pFCRdqw3-1">
          <mxGeometry width="50" height="50" relative="1" as="geometry">
            <mxPoint x="50" y="1030" as="sourcePoint" />
            <mxPoint x="50" y="140" as="targetPoint" />
          </mxGeometry>
        </mxCell>
        <mxCell id="VSgS5F7AN9F9pFCRdqw3-98" value="" style="endArrow=classic;html=1;rounded=0;fontSize=12;startSize=8;endSize=8;curved=1;" edge="1" parent="1">
          <mxGeometry width="50" height="50" relative="1" as="geometry">
            <mxPoint x="50" y="1030" as="sourcePoint" />
            <mxPoint x="400" y="1030" as="targetPoint" />
          </mxGeometry>
        </mxCell>
        <mxCell id="VSgS5F7AN9F9pFCRdqw3-99" value="" style="endArrow=classic;html=1;rounded=0;fontSize=12;startSize=8;endSize=8;curved=1;" edge="1" parent="1">
          <mxGeometry width="50" height="50" relative="1" as="geometry">
            <mxPoint x="538" y="1030" as="sourcePoint" />
            <mxPoint x="719" y="1030" as="targetPoint" />
          </mxGeometry>
        </mxCell>
        <mxCell id="VSgS5F7AN9F9pFCRdqw3-101" value="" style="endArrow=classic;html=1;rounded=0;fontSize=12;startSize=8;endSize=8;curved=1;" edge="1" parent="1">
          <mxGeometry width="50" height="50" relative="1" as="geometry">
            <mxPoint x="720" y="1080" as="sourcePoint" />
            <mxPoint x="534" y="1080" as="targetPoint" />
          </mxGeometry>
        </mxCell>
        <mxCell id="VSgS5F7AN9F9pFCRdqw3-102" value="" style="endArrow=none;html=1;rounded=0;fontSize=12;startSize=8;endSize=8;curved=1;" edge="1" parent="1">
          <mxGeometry width="50" height="50" relative="1" as="geometry">
            <mxPoint x="30" y="1080" as="sourcePoint" />
            <mxPoint x="404" y="1080" as="targetPoint" />
          </mxGeometry>
        </mxCell>
        <mxCell id="VSgS5F7AN9F9pFCRdqw3-104" value="" style="endArrow=classic;html=1;rounded=0;fontSize=12;startSize=8;endSize=8;curved=1;" edge="1" parent="1">
          <mxGeometry width="50" height="50" relative="1" as="geometry">
            <mxPoint x="30" y="1079.5" as="sourcePoint" />
            <mxPoint x="30" y="130" as="targetPoint" />
          </mxGeometry>
        </mxCell>
        <mxCell id="VSgS5F7AN9F9pFCRdqw3-105" value="&lt;font&gt;Request for Registration&amp;nbsp;&lt;/font&gt;" style="text;strokeColor=none;align=center;fillColor=none;html=1;verticalAlign=middle;whiteSpace=wrap;rounded=0;fontSize=11;" vertex="1" parent="1">
          <mxGeometry x="283" y="236" width="128.63" height="16" as="geometry" />
        </mxCell>
        <mxCell id="VSgS5F7AN9F9pFCRdqw3-106" value="&lt;font&gt;Check for Registration&amp;nbsp;&lt;/font&gt;" style="text;strokeColor=none;align=center;fillColor=none;html=1;verticalAlign=middle;whiteSpace=wrap;rounded=0;fontSize=11;" vertex="1" parent="1">
          <mxGeometry x="598.5" y="280" width="120" height="20" as="geometry" />
        </mxCell>
        <mxCell id="VSgS5F7AN9F9pFCRdqw3-107" value="&lt;font&gt;Response&amp;nbsp;&lt;/font&gt;" style="text;strokeColor=none;align=center;fillColor=none;html=1;verticalAlign=middle;whiteSpace=wrap;rounded=0;fontSize=11;" vertex="1" parent="1">
          <mxGeometry x="627" y="312" width="63" height="18" as="geometry" />
        </mxCell>
        <mxCell id="VSgS5F7AN9F9pFCRdqw3-108" value="&lt;font&gt;Response accept / reject&lt;/font&gt;" style="text;strokeColor=none;align=center;fillColor=none;html=1;verticalAlign=middle;whiteSpace=wrap;rounded=0;fontSize=11;spacing=3;" vertex="1" parent="1">
          <mxGeometry x="271" y="274" width="134" height="10" as="geometry" />
        </mxCell>
        <mxCell id="VSgS5F7AN9F9pFCRdqw3-109" value="&lt;font&gt;Request for login&lt;/font&gt;" style="text;strokeColor=none;align=center;fillColor=none;html=1;verticalAlign=middle;whiteSpace=wrap;rounded=0;fontSize=11;" vertex="1" parent="1">
          <mxGeometry x="280" y="409" width="99.25" height="16" as="geometry" />
        </mxCell>
        <mxCell id="VSgS5F7AN9F9pFCRdqw3-111" value="&lt;font&gt;Check for login&lt;/font&gt;" style="text;strokeColor=none;align=center;fillColor=none;html=1;verticalAlign=middle;whiteSpace=wrap;rounded=0;fontSize=11;" vertex="1" parent="1">
          <mxGeometry x="529" y="404" width="73.5" height="18" as="geometry" />
        </mxCell>
        <mxCell id="VSgS5F7AN9F9pFCRdqw3-113" value="&lt;font&gt;Response&amp;nbsp;&lt;/font&gt;" style="text;strokeColor=none;align=center;fillColor=none;html=1;verticalAlign=middle;whiteSpace=wrap;rounded=0;fontSize=11;" vertex="1" parent="1">
          <mxGeometry x="543.5" y="451" width="63" height="18" as="geometry" />
        </mxCell>
        <mxCell id="VSgS5F7AN9F9pFCRdqw3-114" value="&lt;font&gt;Response accept / reject&lt;/font&gt;" style="text;strokeColor=none;align=center;fillColor=none;html=1;verticalAlign=middle;whiteSpace=wrap;rounded=0;fontSize=11;spacing=3;" vertex="1" parent="1">
          <mxGeometry x="249.25" y="459.5" width="138" height="10" as="geometry" />
        </mxCell>
        <mxCell id="VSgS5F7AN9F9pFCRdqw3-115" value="&lt;font&gt;Request for food order&lt;/font&gt;" style="text;strokeColor=none;align=center;fillColor=none;html=1;verticalAlign=middle;whiteSpace=wrap;rounded=0;fontSize=11;" vertex="1" parent="1">
          <mxGeometry x="249.25" y="610" width="130" height="16" as="geometry" />
        </mxCell>
        <mxCell id="VSgS5F7AN9F9pFCRdqw3-116" value="&lt;font style=&quot;font-size: 11px;&quot;&gt;Check for food order details&lt;/font&gt;" style="text;strokeColor=none;align=center;fillColor=none;html=1;verticalAlign=middle;whiteSpace=wrap;rounded=0;fontSize=16;" vertex="1" parent="1">
          <mxGeometry x="610" y="660" width="130" height="20" as="geometry" />
        </mxCell>
        <mxCell id="VSgS5F7AN9F9pFCRdqw3-117" value="&lt;font style=&quot;font-size: 11px;&quot;&gt;Response&amp;nbsp;&lt;/font&gt;" style="text;strokeColor=none;align=center;fillColor=none;html=1;verticalAlign=middle;whiteSpace=wrap;rounded=0;fontSize=16;" vertex="1" parent="1">
          <mxGeometry x="640" y="696" width="63" height="18" as="geometry" />
        </mxCell>
        <mxCell id="VSgS5F7AN9F9pFCRdqw3-118" value="&lt;font&gt;Request for add to cart&lt;/font&gt;" style="text;strokeColor=none;align=center;fillColor=none;html=1;verticalAlign=middle;whiteSpace=wrap;rounded=0;fontSize=11;" vertex="1" parent="1">
          <mxGeometry x="240" y="787" width="130" height="16" as="geometry" />
        </mxCell>
        <mxCell id="VSgS5F7AN9F9pFCRdqw3-119" value="&lt;font style=&quot;font-size: 11px;&quot;&gt;Check for cart&lt;/font&gt;" style="text;strokeColor=none;align=center;fillColor=none;html=1;verticalAlign=middle;whiteSpace=wrap;rounded=0;fontSize=16;" vertex="1" parent="1">
          <mxGeometry x="525.5" y="786" width="109" height="20" as="geometry" />
        </mxCell>
        <mxCell id="VSgS5F7AN9F9pFCRdqw3-120" value="&lt;font style=&quot;font-size: 11px;&quot;&gt;Response&amp;nbsp;&lt;/font&gt;" style="text;strokeColor=none;align=center;fillColor=none;html=1;verticalAlign=middle;whiteSpace=wrap;rounded=0;fontSize=16;" vertex="1" parent="1">
          <mxGeometry x="564" y="830" width="63" height="18" as="geometry" />
        </mxCell>
        <mxCell id="VSgS5F7AN9F9pFCRdqw3-123" value="&lt;font&gt;Response accept / reject&lt;/font&gt;" style="text;strokeColor=none;align=center;fillColor=none;html=1;verticalAlign=middle;whiteSpace=wrap;rounded=0;fontSize=11;spacing=3;" vertex="1" parent="1">
          <mxGeometry x="245.25" y="646" width="138" height="10" as="geometry" />
        </mxCell>
        <mxCell id="VSgS5F7AN9F9pFCRdqw3-124" value="&lt;font&gt;Response accept / reject&lt;/font&gt;" style="text;strokeColor=none;align=center;fillColor=none;html=1;verticalAlign=middle;whiteSpace=wrap;rounded=0;fontSize=11;spacing=3;" vertex="1" parent="1">
          <mxGeometry x="236.25" y="839" width="138" height="10" as="geometry" />
        </mxCell>
        <mxCell id="VSgS5F7AN9F9pFCRdqw3-125" value="&lt;font&gt;Request for payment&lt;/font&gt;" style="text;strokeColor=none;align=center;fillColor=none;html=1;verticalAlign=middle;whiteSpace=wrap;rounded=0;fontSize=11;" vertex="1" parent="1">
          <mxGeometry x="220" y="1009" width="130" height="16" as="geometry" />
        </mxCell>
        <mxCell id="VSgS5F7AN9F9pFCRdqw3-126" value="&lt;font style=&quot;font-size: 11px;&quot;&gt;Check for payment&lt;/font&gt;" style="text;strokeColor=none;align=center;fillColor=none;html=1;verticalAlign=middle;whiteSpace=wrap;rounded=0;fontSize=16;" vertex="1" parent="1">
          <mxGeometry x="554.5" y="1005" width="109" height="20" as="geometry" />
        </mxCell>
        <mxCell id="VSgS5F7AN9F9pFCRdqw3-127" value="&lt;font&gt;Response accept / reject&lt;/font&gt;" style="text;strokeColor=none;align=center;fillColor=none;html=1;verticalAlign=middle;whiteSpace=wrap;rounded=0;fontSize=11;spacing=3;" vertex="1" parent="1">
          <mxGeometry x="216" y="1066" width="138" height="10" as="geometry" />
        </mxCell>
        <mxCell id="VSgS5F7AN9F9pFCRdqw3-128" value="&lt;font style=&quot;font-size: 11px;&quot;&gt;Response&amp;nbsp;&lt;/font&gt;" style="text;strokeColor=none;align=center;fillColor=none;html=1;verticalAlign=middle;whiteSpace=wrap;rounded=0;fontSize=16;" vertex="1" parent="1">
          <mxGeometry x="584" y="1059" width="63" height="18" as="geometry" />
        </mxCell>
      </root>
    </mxGraphModel>
  </diagram>
</mxfile>
